<svg xmlns="http://www.w3.org/2000/svg" width="285" height="85.741" viewBox="0 0 285 85.741">
  <g id="Group_40" data-name="Group 40" transform="translate(-242.302 -245.442)">
    <g id="Group_38" data-name="Group 38" transform="translate(326.786 264.651)">
      <path id="Path_56" data-name="Path 56" d="M553.77,269.418H543.52v20.5h3.694v-6.7h6.556a6.882,6.882,0,0,0,6.874-6.9,6.755,6.755,0,0,0-2.016-4.883,6.648,6.648,0,0,0-4.858-2.016m2.221,9.147a3.046,3.046,0,0,1-2.221.932h-6.556v-6.359h6.556a3.055,3.055,0,0,1,2.224.934,3.011,3.011,0,0,1,.955,2.245,3.054,3.054,0,0,1-.958,2.248" transform="translate(-380.603 -268.935)" fill="#fff"/>
      <path id="Path_57" data-name="Path 57" d="M493.037,283.217h5.548l3.884,6.714h4.25l-4.182-7.321-.118.01a6.892,6.892,0,0,0,2.031-1.418,6.6,6.6,0,0,0,2.017-4.885,6.759,6.759,0,0,0-2.016-4.883,6.651,6.651,0,0,0-4.86-2.016H489.343v20.5h3.694Zm0-10.079h6.555a3.057,3.057,0,0,1,2.226.934,3.013,3.013,0,0,1,.954,2.245,3.23,3.23,0,0,1-3.18,3.181h-6.555Z" transform="translate(-370.924 -268.935)" fill="#fff"/>
      <path id="Path_58" data-name="Path 58" d="M581.876,269.418v8.39H572.14v-8.39h-3.695v20.5h3.695v-8.39h9.736v8.39h3.7v-20.5Z" transform="translate(-385.056 -268.935)" fill="#fff"/>
      <path id="Path_59" data-name="Path 59" d="M380.948,289.589h.025a8.515,8.515,0,0,0,8.537-8.561v-11.94h-3.694v11.94a4.868,4.868,0,0,1-9.734,0v-11.94h-3.7v11.94a8.517,8.517,0,0,0,8.536,8.561h.026" transform="translate(-350.028 -268.876)" fill="#fff"/>
      <path id="Path_60" data-name="Path 60" d="M405.381,289.59h3.893V272.809h6.7v-3.721h-17.3v3.721h6.7Z" transform="translate(-354.725 -268.876)" fill="#fff"/>
      <path id="Path_61" data-name="Path 61" d="M432.007,289.591a10.252,10.252,0,1,0-7.228-17.478,9.9,9.9,0,0,0-3.023,7.226,10.326,10.326,0,0,0,10.25,10.252m-4.641-14.868a6.546,6.546,0,1,1,4.641,11.146,6.547,6.547,0,0,1-4.641-11.146" transform="translate(-358.848 -268.876)" fill="#fff"/>
      <path id="Path_62" data-name="Path 62" d="M471.1,289.591a9.375,9.375,0,0,0,2.559-.332,8.853,8.853,0,0,0,2.333-.926,10.3,10.3,0,0,0,2.022-1.458,9.55,9.55,0,0,0,1.643-1.9l.125-.189V277.5h-7.389v3.7h3.7v2.4l-.053.06a6.809,6.809,0,0,1-2.209,1.645,6.705,6.705,0,0,1-2.727.565,6.546,6.546,0,0,1-4.642-11.146,6.551,6.551,0,0,1,9.256,0l.122.121,2.664-2.609-.123-.122a10.625,10.625,0,0,0-3.28-2.23,10.075,10.075,0,0,0-4-.8,10.252,10.252,0,0,0,0,20.5" transform="translate(-365.832 -268.876)" fill="#fff"/>
      <path id="Path_63" data-name="Path 63" d="M519.963,286.885l2.213-.01h7.166l.31.608,1.14,2.3.071.094h4.113L524.619,269.16l-10.236,20.713h4.14Zm1.789-3.714h.025l2.842-5.707,2.8,5.612.072.1.044.088-5.826.007Z" transform="translate(-375.397 -268.889)" fill="#fff"/>
      <path id="Path_64" data-name="Path 64" d="M345.164,289.544H349.3l1.441-2.989,2.214-.01h7.166l.309.608,1.14,2.3.071.1h4.114L355.4,268.83Zm13.1-6.7.044.088-5.826.007.046-.1h.025l2.843-5.707,2.8,5.613Z" transform="translate(-345.164 -268.83)" fill="#fff"/>
      <path id="Path_65" data-name="Path 65" d="M422.763,310.051c-.154-.169-.315-.333-.494-.5-1.852-1.647-4.631-2.815-8.255-3.474a40.448,40.448,0,0,0-7.195-.614c-1.524,0-3.12.075-4.746.222a49.822,49.822,0,0,0-12.679,2.86,30.738,30.738,0,0,0-10.54,6.369c-.461.457-.9.932-1.317,1.413a.836.836,0,0,0-.2.583.887.887,0,0,0,.291.6.858.858,0,0,0,.536.176.808.808,0,0,0,.559-.273c.378-.443.782-.88,1.2-1.292a29.02,29.02,0,0,1,10.044-6.048,48.207,48.207,0,0,1,12.253-2.749c1.6-.145,3.173-.218,4.665-.218a38.922,38.922,0,0,1,6.754.558c3.377.6,5.934,1.648,7.6,3.122.139.128.268.26.386.392a8.908,8.908,0,0,1,1.791,9.312,13.494,13.494,0,0,1-3.313,4.882c-3.048,3.1-8.084,5.451-14.964,6.981a42.233,42.233,0,0,1-8.055.965H396.9l12.281-20.682a.806.806,0,0,0,.1-.621.888.888,0,0,0-.38-.535.838.838,0,0,0-.387-.1.819.819,0,0,0-.168.019.739.739,0,0,0-.5.371l-12.744,21.458a13.263,13.263,0,0,1-2.3-.388,6.048,6.048,0,0,1-3.419-2.019,4.119,4.119,0,0,1-.746-2.761,6.693,6.693,0,0,1,1.046-3.051.855.855,0,0,0-.254-1.14.768.768,0,0,0-.408-.117.706.706,0,0,0-.182.021.832.832,0,0,0-.491.352,8.467,8.467,0,0,0-1.286,3.809,5.761,5.761,0,0,0,1.064,3.873,7.465,7.465,0,0,0,4.275,2.627,13.528,13.528,0,0,0,1.774.347l-1.237,2.073a.848.848,0,0,0-.09.619.773.773,0,0,0,.356.5.723.723,0,0,0,.41.128.833.833,0,0,0,.183-.023.775.775,0,0,0,.484-.362l1.657-2.784c.354.019.724.028,1.1.028a44.252,44.252,0,0,0,8.392-.994c7.187-1.6,12.485-4.086,15.744-7.4a15.186,15.186,0,0,0,3.7-5.49,10.594,10.594,0,0,0-2.124-11.029" transform="translate(-350.911 -275.375)" fill="#fff"/>
      <path id="Path_66" data-name="Path 66" d="M483.28,320.265a.682.682,0,0,0,.292.466.7.7,0,0,0,.421.144.581.581,0,0,0,.113-.009.794.794,0,0,0,.485-.277l.954-1.311a.691.691,0,0,0,.133-.542.743.743,0,0,0-.275-.479.727.727,0,0,0-.428-.142.91.91,0,0,0-.114.007.71.71,0,0,0-.476.293l-.975,1.3a.741.741,0,0,0-.13.548" transform="translate(-369.839 -277.635)" fill="#fff"/>
      <path id="Path_67" data-name="Path 67" d="M504.707,318.122a.7.7,0,0,0-.476.293l-.976,1.3a.753.753,0,0,0-.131.548.688.688,0,0,0,.292.466.708.708,0,0,0,.423.144.606.606,0,0,0,.113-.009.782.782,0,0,0,.482-.277l.956-1.311a.712.712,0,0,0,.136-.542.752.752,0,0,0-.279-.479.714.714,0,0,0-.427-.142.91.91,0,0,0-.114.007" transform="translate(-373.384 -277.635)" fill="#fff"/>
      <path id="Path_68" data-name="Path 68" d="M530.9,332.354q-.377,0-4.016.025c-2.457.018-5.408.054-8.77.112-3.294.053-6.533.138-9.631.243l4.953-7.808a.775.775,0,0,0,.09-.109c.082-.121.161-.244.227-.366l1.774-2.8a.731.731,0,0,0,.089-.549.7.7,0,0,0-.313-.441.722.722,0,0,0-.4-.13.766.766,0,0,0-.159.019.7.7,0,0,0-.441.317l-.748,1.179a3.093,3.093,0,0,0-.8-.626,4.6,4.6,0,0,0-1.55-.5,3.667,3.667,0,0,0-.739-.073,5.876,5.876,0,0,0-3.455,1.373c-.317.271-.6.541-.856.808-.02-.014-.029-.034-.049-.05a.71.71,0,0,0-.427-.143.808.808,0,0,0-.116.007.715.715,0,0,0-.491.324c-.015.023-.1.146-.577.759-.384.493-.87,1.063-1.441,1.7a13.416,13.416,0,0,1-1.781,1.657,2.957,2.957,0,0,1-1.355.644,5.91,5.91,0,0,1,.441-1.051c.277-.544.6-1.131.958-1.748.476-.819.894-1.607,1.243-2.348a3.812,3.812,0,0,0,.468-1.92,1.182,1.182,0,0,0-1.363-1.092,3.228,3.228,0,0,0-.433.03,5.822,5.822,0,0,0-2.412,1.193q-.769.584-1.538,1.3l.558-.928a.762.762,0,0,0,.1-.544.734.734,0,0,0-.333-.469.744.744,0,0,0-.381-.108.7.7,0,0,0-.169.022.68.68,0,0,0-.442.333c-.216.344-.568.922-1.051,1.736l-.287.483a.759.759,0,0,0-.265-.052h-.06a.729.729,0,0,0-.5.259c-.025.031-.2.228-.908.973-.577.611-1.262,1.3-2.039,2.057a15.382,15.382,0,0,1-2.232,1.827,2.179,2.179,0,0,1-1.1.434.7.7,0,0,1-.334-.078c-.265-.266-.291-.749-.073-1.438a12.709,12.709,0,0,1,1.084-2.42c.488-.866.96-1.642,1.406-2.306s.719-1.066.826-1.206a.782.782,0,0,0,.143-.487.719.719,0,0,0-.221-.484.76.76,0,0,0-.514-.2.713.713,0,0,0-.522.227l-3.206,3.374a.755.755,0,0,0-.473-.184.723.723,0,0,0-.5.2c-.091.093-.494.487-1.21,1.194a22.85,22.85,0,0,1-2.113,1.849c-.7.536-1.419,1.038-2.151,1.5a4.912,4.912,0,0,1-2.2.95h-.016a2.653,2.653,0,0,1,.137-.811,41.417,41.417,0,0,1,3.86-7.786c2-3.361,3.79-6.238,5.322-8.549.75-1.146,1.312-2.026,1.675-2.615a.736.736,0,0,0,.088-.55.7.7,0,0,0-.335-.444.676.676,0,0,0-.372-.11.7.7,0,0,0-.168.02.767.767,0,0,0-.462.338c-.33.547-.883,1.409-1.648,2.567-1.552,2.343-3.367,5.263-5.39,8.683-.7,1.174-1.305,2.26-1.839,3.264a.753.753,0,0,0-.256-.047h-.06a.729.729,0,0,0-.5.259c-.025.031-.2.225-.908.973-.579.611-1.264,1.3-2.04,2.057a15.343,15.343,0,0,1-2.232,1.827,2.172,2.172,0,0,1-1.1.434.7.7,0,0,1-.335-.078c-.265-.266-.292-.749-.075-1.438a12.872,12.872,0,0,1,1.085-2.42c.488-.866.963-1.642,1.409-2.306s.719-1.066.825-1.206a.782.782,0,0,0,.142-.487.7.7,0,0,0-.222-.484.754.754,0,0,0-.513-.2.719.719,0,0,0-.523.227l-2.951,3.109a.779.779,0,0,0-.493-.19.738.738,0,0,0-.507.211L467.2,325.4a12.985,12.985,0,0,1-2.16,1.753,1.868,1.868,0,0,1-.84.271,1.088,1.088,0,0,1-.152-.012.6.6,0,0,1-.331-.463,2.859,2.859,0,0,1-.039-.888,6.265,6.265,0,0,1,.131-.846,2.844,2.844,0,0,0,.1-.458.684.684,0,0,0-.125-.534.758.758,0,0,0-.482-.3l-.075,0a.8.8,0,0,0-.423.114.733.733,0,0,0-.32.406c-.011.035-.045.183-.106.441a4.28,4.28,0,0,1-.623,1.287,4.177,4.177,0,0,1-1.613,1.368,2.594,2.594,0,0,1-1.082.291,1.322,1.322,0,0,1-.281-.029.781.781,0,0,1-.435-.266.969.969,0,0,1-.2-.545,3.694,3.694,0,0,1,.737-2.046,5.417,5.417,0,0,1,2.438-2.117,4.928,4.928,0,0,1,1.691-.345,2.8,2.8,0,0,1,1.162.191.812.812,0,0,0,.295.058.757.757,0,0,0,.261-.048.655.655,0,0,0,.386-.387.648.648,0,0,0,.023-.559.776.776,0,0,0-.379-.4,4.152,4.152,0,0,0-1.685-.306h-.076a6.2,6.2,0,0,0-2.211.454,5.414,5.414,0,0,0-1.714,1.044.959.959,0,0,0-.056-.092.506.506,0,0,0-.4-.194.974.974,0,0,0-.523.191l-2.323,1.675q-2.256,1.629-3.712,2.649a18.889,18.889,0,0,1-2.54,1.544,3.992,3.992,0,0,1-1.436.493c-.045-.013-.122-.184.044-.8.11-.407,1.547-2.875,7.771-12.309h11.339a.732.732,0,0,0,.517-.21.729.729,0,0,0,0-1.051.721.721,0,0,0-.519-.223H456.851l5.607-8.762a.788.788,0,0,0,.1-.549.73.73,0,0,0-.335-.481.746.746,0,0,0-.381-.108.762.762,0,0,0-.168.021.775.775,0,0,0-.459.317l-6.1,9.564H440.128a.715.715,0,0,0-.533.226.739.739,0,0,0-.21.515.71.71,0,0,0,.161.466.762.762,0,0,0,.344.244.507.507,0,0,0,.287.085c.03,0,.25.015,1.377.1.872.066,1.941.2,3.172.407a23.769,23.769,0,0,1,3.561.87,5.935,5.935,0,0,1,2.513,1.46,1.717,1.717,0,0,1,.168,2.094.268.268,0,0,0-.034.057l-1.546,2.422a.753.753,0,0,0-.424-.148.727.727,0,0,0-.5.2,19.74,19.74,0,0,1-1.692,1.473,19.5,19.5,0,0,1-4.881,2.905,5.994,5.994,0,0,1-2.166.545h0a1.494,1.494,0,0,1-.993-.3.641.641,0,0,0-.069-.058,1.724,1.724,0,0,1-.194-.379,2.648,2.648,0,0,1,.292-2.023c.1-.171.2-.339.3-.5a5.313,5.313,0,0,0,1.644.575,3.689,3.689,0,0,0,.779.076,6.658,6.658,0,0,0,2.088-.389,6.522,6.522,0,0,0,2.283-1.254,1.86,1.86,0,0,0,.557-1.823.733.733,0,0,0-.053-.145,1.862,1.862,0,0,0-.341-.58,2.339,2.339,0,0,0-.725-.578,2.59,2.59,0,0,0-1.366-.316,6.755,6.755,0,0,0-1.2.123,6,6,0,0,0-.948.281,7.726,7.726,0,0,0-2.044,1.17,8.48,8.48,0,0,0-2.261,2.7,4.02,4.02,0,0,0-.386,3.184,3.219,3.219,0,0,0,.467.831c.039.038.073.078.13.145a3.031,3.031,0,0,0,2.063.721,7.15,7.15,0,0,0,2.69-.638,21.229,21.229,0,0,0,5.213-3.09c-.024.035-.044.065-.068.105a10.6,10.6,0,0,0-.714,1.327,4.21,4.21,0,0,0-.389,1.579,1.573,1.573,0,0,0,.663,1.364,1.309,1.309,0,0,0,.637.145,4.12,4.12,0,0,0,1.642-.455,24.486,24.486,0,0,0,3.133-1.767c1.1-.725,2.392-1.663,3.838-2.788.411-.32.747-.584,1.021-.8a4.5,4.5,0,0,0-.712,2.512,2.4,2.4,0,0,0,.52,1.421,2.342,2.342,0,0,0,1.257.738,2.676,2.676,0,0,0,.567.059,4.257,4.257,0,0,0,1.737-.431,6.009,6.009,0,0,0,1.642-1.2,2,2,0,0,0,1.117,1.129,1.832,1.832,0,0,0,.562.086,2.888,2.888,0,0,0,1.161-.28,11.776,11.776,0,0,0,2.61-1.915q1.656-1.471,2.241-2a.16.16,0,0,1,.02-.016c.012.01.014.024.025.032a.733.733,0,0,0,.505.2.534.534,0,0,0,.1-.007,10.259,10.259,0,0,0-.726,2.292,2.262,2.262,0,0,0,.586,2.2,1.809,1.809,0,0,0,1.05.322,3.156,3.156,0,0,0,1.385-.377,12.8,12.8,0,0,0,2.784-1.953c.62-.559,1.183-1.092,1.689-1.591-.29.677-.529,1.3-.7,1.85-.4,1.426-.124,2.3.86,2.6a2.51,2.51,0,0,0,.391.033,5.885,5.885,0,0,0,3.006-1.149c.763-.478,1.519-1.006,2.247-1.569a24.728,24.728,0,0,0,2.208-1.94c.409-.4.71-.7.924-.907a.727.727,0,0,0,.5.2.514.514,0,0,0,.1-.007,10.432,10.432,0,0,0-.726,2.292,2.259,2.259,0,0,0,.586,2.2,1.811,1.811,0,0,0,1.049.322,3.148,3.148,0,0,0,1.385-.377,12.7,12.7,0,0,0,2.783-1.953c.343-.307.662-.606.969-.894l-.473.8c-.582.99-.6,1.041-.6,1.041a.728.728,0,0,0-.089.549.689.689,0,0,0,.346.448.726.726,0,0,0,.36.1.746.746,0,0,0,.154-.017.677.677,0,0,0,.439-.288c.03-.044.333-.432.9-1.168s1.33-1.63,2.208-2.622a29.24,29.24,0,0,1,2.71-2.693,5.544,5.544,0,0,1,2.37-1.365c.048,0,.09-.012.127-.017a3.793,3.793,0,0,1-.415,1.13c-.317.627-.688,1.316-1.1,2.041a12.312,12.312,0,0,0-1.628,3.544,1.3,1.3,0,0,0,.178,1,1.255,1.255,0,0,0,.88.453l.2.006a3.719,3.719,0,0,0,2.094-.762,13.583,13.583,0,0,0,2.159-1.864c.132-.14.258-.274.379-.41-.016.12-.035.244-.039.361a2.751,2.751,0,0,0,.591,1.859,2.53,2.53,0,0,0,.6.5,2.583,2.583,0,0,0,1.2.287,3.974,3.974,0,0,0,1.671-.421c.437-.218.865-.452,1.273-.7L506.7,332.8c-2.328.1-4.273.231-5.784.388-2.66.348-4.369,1.152-5.07,2.384a2.965,2.965,0,0,0-.472,1.924,3.58,3.58,0,0,0,.789,1.832,6.144,6.144,0,0,0,2.422,1.7,9.817,9.817,0,0,0,3.8.669.708.708,0,0,0,.613-.339l4.535-7.13c3.233-.12,6.672-.214,10.228-.278,3.588-.062,6.7-.1,9.254-.109l3.9-.018a.729.729,0,0,0,.729-.725.716.716,0,0,0-.214-.527.706.706,0,0,0-.528-.215m-80.771-15.695a15.36,15.36,0,0,0-2.526-.989h6.557l-1.925,3.027a4.179,4.179,0,0,0-2.105-2.038m-9.489,6.472a6.474,6.474,0,0,1,1.636-.961,5.256,5.256,0,0,1,.757-.214,4.5,4.5,0,0,1,.862-.1,1.32,1.32,0,0,1,.728.168.826.826,0,0,1,.259.185,1,1,0,0,1,.106.141.442.442,0,0,1-.172.46,5.437,5.437,0,0,1-1.742.91,4.786,4.786,0,0,1-1.58.318,2.519,2.519,0,0,1-.441-.036,3.819,3.819,0,0,1-1.052-.318,6.776,6.776,0,0,1,.64-.555m67.088,4.485a2.716,2.716,0,0,1-1.1.3.972.972,0,0,1-.439-.094.8.8,0,0,1-.22-.175,1.306,1.306,0,0,1-.233-.872,3.4,3.4,0,0,1,.5-1.515,7.854,7.854,0,0,1,1.69-1.906,4.4,4.4,0,0,1,2.551-1.039,2.626,2.626,0,0,1,.5.05,3.2,3.2,0,0,1,1.064.337,1.444,1.444,0,0,1,.388.278.762.762,0,0,0,.021.268.783.783,0,0,1-.127.742,10.565,10.565,0,0,1-1.526,1.522,13.091,13.091,0,0,1-3.074,2.1m-5.745,12.606c-2.3-.156-3.869-.766-4.674-1.822a2.034,2.034,0,0,1-.486-1.058,1.545,1.545,0,0,1,.249-.985c.491-.867,1.839-1.444,4-1.717,1.258-.126,2.828-.237,4.669-.325Z" transform="translate(-361.557 -275.164)" fill="#fff"/>
      <path id="Path_69" data-name="Path 69" d="M555.97,338.519l-.736-.018a.72.72,0,0,0-.516.195.738.738,0,0,0-.228.5.672.672,0,0,0,.187.524.741.741,0,0,0,.5.234l.782.017a.629.629,0,0,0,.472-.191.758.758,0,0,0,.225-.49.672.672,0,0,0-.186-.535.731.731,0,0,0-.5-.236" transform="translate(-382.563 -281.278)" fill="#fff"/>
    </g>
    <g id="Group_39" data-name="Group 39" transform="translate(242.302 245.442)">
      <path id="Path_70" data-name="Path 70" d="M286.684,254.279c14.252,6.3,23.383,5.286,28.465,3.414l-10.336-12.251h-43.04l-3.618,4.287c7.545-1.137,17.137-.486,28.529,4.55" transform="translate(-245.134 -245.442)" fill="#089ba6"/>
      <path id="Path_71" data-name="Path 71" d="M317.885,266.933a31.762,31.762,0,0,1-14.3,3.123c-6.15,0-13.81-1.418-23.1-5.526-17.968-7.943-30.214-3.073-35.613.223L242.3,267.8l4.29,4.261c.225-.107.444-.216.676-.319,6.111-2.71,16.426-4.619,30.871,1.684,12.937,5.644,23.073,5.951,29.851,4.93L318.619,267.8Z" transform="translate(-242.302 -248.084)" fill="#089ba6"/>
      <path id="Path_72" data-name="Path 72" d="M254.354,281.17l7.22,7.171c5.634.034,11.053,2.071,16.111,3.974,5.919,2.226,11.634,4.372,17.846,4.094l6.865-6.82a66.811,66.811,0,0,1-25.015-5.954c-10.274-4.483-17.823-4.166-23.026-2.466" transform="translate(-244.455 -251.619)" fill="#089ba6"/>
      <path id="Path_73" data-name="Path 73" d="M274.456,301.389l11.749,11.671L292.3,307a71.584,71.584,0,0,1-13.589-4.054c-1.482-.558-2.893-1.084-4.258-1.56" transform="translate(-248.047 -255.438)" fill="#089ba6"/>
    </g>
  </g>
</svg>
