<svg xml:space="preserve" overflow="visible" viewBox="0 0 841.89 595.28" y="0px" x="0px" id="Layer_1" version="1.2" xmlns="http://www.w3.org/2000/svg"><metadata id="metadata67">image/svg+xml</metadata><defs id="defs65"></defs>


<g id="g910" transform="matrix(1.0542448,0,0,1.0542448,-22.818245,1.9559819)"><g transform="matrix(1.4826803,0,0,1.4826803,-203.17463,-135.37735)" id="g883"><g style="fill:#ed1c24;fill-opacity:1" id="g6">
	<path style="fill:#ed1c24;fill-opacity:1" id="path2" d="m 469.18,101.76 c -43.51,0 -55.19,22.27 -65.03,46.38 H 203.91 l -13.8,58.81 h 204.1 c 11.64,-40.98 38.75,-46.39 65.85,-46.39 h 216.45 l 13.72,-58.8 z" fill="#FF0000"></path>
	<path style="fill:#ed1c24;fill-opacity:1" id="path4" d="m 418.08,185.2 c -9.59,8.93 -15.23,20.29 -18.8,33.43 H 187.31 l -6.49,27.68 -7.31,31.12 h 215.05 c 3.62,-14.41 11.67,-24.85 20.42,-32.35 14.31,-12.06 33.21,-14.6 45.61,-14.6 H 659.92 L 673.98,171.3 H 460.01 c -20.41,0 -32.17,4.76 -41.93,13.9 z" fill="#FF0000"></path>
</g><g id="g44">
	<path id="path8" d="m 206.13,321.01 c -4.51,-3 -11.43,-4.86 -18.38,-4.86 -20.41,0 -27.12,13.74 -27.12,23.15 0,11.08 8.33,16 15.07,18.51 4.03,1.49 8.84,3.42 12.57,5.08 5.12,2.18 7.29,6.83 7.29,9.94 0,3.97 -4.11,10.45 -13.99,10.45 -11.49,0 -14.07,-7.76 -14.07,-11.36 0,-1.04 0.16,-2.76 0.36,-3.67 l -15.5,-0.41 c -0.5,1.72 -0.73,3.58 -0.73,5.2 0,13.54 12.38,22.55 28.62,22.55 22.44,0 30.41,-13.08 30.41,-24.91 0,-4.93 -1.58,-9.83 -5.54,-13.55 -2.87,-2.81 -6.45,-4.91 -10.95,-6.76 -4.02,-1.53 -6.88,-2.4 -10.97,-4.27 -5.07,-2.21 -7.68,-4.92 -7.68,-9.3 0,-4.98 5.3,-8.52 11.77,-8.52 7.72,0 13.02,5.21 13.02,10.66 v 0.88 l 13.92,0.94 c 0,0 0.46,-2.18 0.46,-4.14 0.01,-5.84 -2.95,-11.79 -8.56,-15.61 z"></path>
	<path id="path10" d="m 280.61,322.49 c -6.46,-4.96 -16.3,-6.53 -21,-6.53 -11.2,0 -20.45,3.71 -27.4,10.1 -9.26,8.63 -14.19,22.75 -14.19,36.1 0,8.06 1.48,16.63 6.99,23.28 4.91,5.63 12.35,9.9 24.91,9.9 17.15,0 26.07,-7.78 32.76,-16.65 6.02,-8.07 8.99,-19.96 8.99,-30.52 0,-12.56 -4.75,-20.7 -11.06,-25.68 z m -9.24,47.4 c -3.81,7.47 -10.85,12.6 -20.3,12.6 -5.68,0 -10.32,-2.07 -13.61,-5.59 -3.03,-3.34 -4.62,-8.16 -4.62,-15.21 0,-6.97 2.49,-18.37 8.02,-25.03 4.13,-4.96 10.02,-8.04 17.14,-8.04 6.3,0 11.69,2.61 14.78,6.64 2.63,3.65 3.77,8.31 3.77,13.89 0,6.81 -2.12,14.85 -5.18,20.74 z"></path>
	<polygon id="polygon12" points="346.66,348.52 317.17,348.52 320.59,331.08 362.48,331.08 350.48,393.03 366.39,393.03 378.47,331.08 396.59,331.08 399.04,318.25 307.33,318.25 302.76,341.75 292.86,393.03 308.65,393.03 314.7,361.56 344.16,361.56"></polygon>
	<path id="path14" d="m 468.3,270.22 c -16.45,0 -28.85,4.5 -37.77,11.29 -13.64,10.34 -19.33,25.93 -19.33,38.17 0,16.92 10.58,36.45 42.88,36.45 7.97,0 17.6,-2.6 21.86,-4.87 -0.15,4.12 -2.78,8.76 -6.28,12.64 -3.92,4.29 -9.46,7.2 -16.81,7.2 -1.75,0 -6.76,-0.51 -10.39,-3.29 -2.11,-1.65 -3.52,-4.35 -3.75,-8.16 l -34.79,-0.72 c -0.31,0.92 -0.43,2.47 -0.43,4.62 0,10.58 4.75,18.67 11.7,23.82 10.83,8.31 27.12,9.84 35.07,9.84 29.43,0 45.26,-12.85 54.75,-26.67 9.3,-13.47 15.28,-31.98 15.28,-54.08 0,-25.36 -17.84,-46.24 -51.99,-46.24 z m -3.39,61.47 c -9.92,0 -16.78,-6.88 -16.78,-16.14 0,-9.01 9.45,-18.06 20.05,-18.06 6.11,0 15.85,3.9 15.85,15.8 0,11.01 -9.9,18.4 -19.12,18.4 z"></path>
	<path id="path16" d="m 532.4,387.2 c 10.92,8.33 27.3,9.94 35.2,9.94 29.25,0 44.58,-12.55 53.99,-26.39 9.26,-13.48 15.21,-32.32 15.21,-54.42 0,-25.44 -18.49,-46.15 -51.27,-46.15 -16.26,0 -29.35,4.42 -38.24,11.15 -13.6,10.32 -19.19,25.34 -19.19,38.22 0,16.9 10.3,36.4 42.49,36.4 7.03,0 17.98,-2.7 22.29,-5.02 -0.22,4.11 -2.69,9.11 -6.17,12.96 -4.07,4.18 -9.98,7.08 -16.65,7.08 -1.71,0 -6.48,-0.37 -10.13,-3.16 -2.11,-1.58 -3.66,-4.38 -3.82,-8.16 l -34.88,-0.54 c -0.15,0.91 -0.36,2.52 -0.36,4.67 0,10.55 4.77,18.31 11.53,23.42 z m 48.51,-55.74 c -10.02,0 -16.24,-7.61 -16.24,-16.07 0,-8.99 8.68,-18.08 19.66,-18.08 6.28,0 16.22,3.71 16.22,15.62 0,11.56 -9.86,18.53 -19.64,18.53 z"></path>
	<polygon id="polygon18" points="325.92,430.7 325.92,458.69 347.23,458.69 347.23,453.21 332.03,453.21 332.03,447.33 345.23,447.33 345.23,441.85 332.03,441.85 332.03,436.18 347.03,436.18 347.03,430.7"></polygon>
	<path id="path20" d="m 370.51,446.73 c 0,4.44 -2.28,6.72 -6.04,6.72 -3.76,0 -6.04,-2.36 -6.04,-6.92 V 430.7 h -6.16 v 16 c 0,8.24 4.6,12.44 12.12,12.44 7.52,0 12.28,-4.16 12.28,-12.64 v -15.8 h -6.16 z"></path>
	<path id="path22" d="m 406.31,440.01 v -0.08 c 0,-2.64 -0.84,-4.84 -2.4,-6.4 -1.84,-1.84 -4.6,-2.84 -8.16,-2.84 h -12.8 v 28 h 6.16 v -8.96 h 4.84 l 6,8.96 h 7.2 l -6.84,-10 c 3.56,-1.32 6,-4.16 6,-8.68 z m -6.24,0.32 c 0,2.36 -1.72,3.96 -4.72,3.96 h -6.24 v -8.04 h 6.12 c 3,0 4.84,1.36 4.84,4 z"></path>
	<path id="path24" d="m 425.55,430.22 c -8.64,0 -14.92,6.52 -14.92,14.48 v 0.08 c 0,7.96 6.2,14.4 14.84,14.4 8.64,0 14.92,-6.52 14.92,-14.48 v -0.08 c 0,-7.96 -6.2,-14.4 -14.84,-14.4 z m 8.4,14.55 c 0,4.8 -3.44,8.72 -8.4,8.72 -4.96,0 -8.48,-4 -8.48,-8.8 v -0.08 c 0,-4.8 3.44,-8.72 8.4,-8.72 4.96,0 8.48,4 8.48,8.8 z"></path>
	<path id="path26" d="m 457.31,430.7 h -11.44 v 28 h 6.16 v -8.4 h 4.68 c 6.28,0 11.32,-3.36 11.32,-9.84 v -0.08 c 0,-5.72 -4.04,-9.68 -10.72,-9.68 z m 4.48,9.87 c 0,2.4 -1.8,4.24 -4.88,4.24 h -4.88 v -8.56 h 4.76 c 3.08,0 5,1.48 5,4.24 z"></path>
	<polygon id="polygon28" points="472.6,430.7 472.6,458.69 493.91,458.69 493.91,453.21 478.71,453.21 478.71,447.33 491.91,447.33 491.91,441.85 478.71,441.85 478.71,436.18 493.71,436.18 493.71,430.7"></polygon>
	<polygon id="polygon30" points="526.79,452.3 526.79,457.58 547.82,457.58 547.82,432.57 526.79,432.57 526.79,437.86 542.4,437.86 542.4,442.5 527.63,442.5 527.63,447.42 542.4,447.42 542.4,452.3"></polygon>
	<rect id="rect32" height="5.2800002" width="15.55" y="442.26999" x="556.42999"></rect>
	<path id="path34" d="m 580.36,457.61 h 21.17 v -24.64 h -21.17 z m 5.48,-19.35 H 596 v 14.07 h -10.16 z"></path>
	<path id="path36" d="m 624.07,438.04 c -0.13,1.09 -0.4,2.45 -0.81,4.09 -0.4,1.64 -0.99,3.32 -1.77,5.05 -0.09,0.2 -0.2,0.39 -0.3,0.58 l -2.07,-11.45 h -3.47 l 1.95,11.54 h 3.54 c -0.76,1.45 -1.79,2.74 -3.12,3.87 -1.54,1.3 -3.48,2.15 -5.84,2.56 v 4.71 c 2.65,-0.4 4.9,-1.22 6.75,-2.46 1.85,-1.23 3.41,-2.7 4.68,-4.41 1.27,-1.71 2.24,-3.47 2.93,-5.3 0.69,-1.83 1.18,-3.53 1.5,-5.12 0.31,-1.58 0.55,-3.37 0.71,-5.37 h -4.51 c 0.02,0.06 -0.03,0.62 -0.17,1.71 z"></path>
	<polygon id="polygon38" points="615.53,447.85 613.51,436.31 610.04,436.31 611.99,447.85"></polygon>
	<path id="path40" d="m 655.74,435.67 c 1.03,0 1.91,-0.36 2.64,-1.08 0.73,-0.72 1.09,-1.59 1.09,-2.62 0,-1.03 -0.37,-1.91 -1.09,-2.64 -0.73,-0.73 -1.61,-1.09 -2.64,-1.09 -1.03,0 -1.91,0.36 -2.62,1.08 -0.72,0.74 -1.08,1.62 -1.08,2.62 h -1.92 v 7.03 c 0,3.12 0.18,5.87 0.55,8.25 0.37,2.38 0.78,4.37 1.23,5.97 0.45,1.6 1.1,3.23 1.95,4.86 h 5.62 c -0.02,-0.02 -0.24,-0.49 -0.64,-1.41 -0.4,-0.92 -0.88,-2.23 -1.41,-3.92 -0.54,-1.69 -1.02,-3.7 -1.43,-6.02 -0.42,-2.32 -0.63,-4.9 -0.66,-7.72 v -3.33 c 0.14,0.01 0.28,0.02 0.41,0.02 z m -1.18,-2.52 c -0.31,-0.31 -0.47,-0.71 -0.47,-1.18 0,-0.49 0.16,-0.9 0.47,-1.21 0.31,-0.31 0.71,-0.47 1.18,-0.47 0.47,0 0.87,0.16 1.2,0.47 0.32,0.31 0.49,0.72 0.49,1.21 0,0.47 -0.16,0.86 -0.49,1.18 -0.33,0.31 -0.72,0.47 -1.2,0.47 -0.47,0 -0.86,-0.16 -1.18,-0.47 z"></path>
	<path id="path42" d="m 639.79,438.97 c -0.02,2.83 -0.24,5.4 -0.66,7.72 -0.42,2.32 -0.89,4.33 -1.43,6.02 -0.54,1.69 -1.01,3 -1.41,3.92 -0.4,0.92 -0.62,1.39 -0.64,1.41 h 5.92 c 0.65,-1.64 1.22,-3.26 1.72,-4.86 0.49,-1.6 0.9,-3.59 1.23,-5.97 0.33,-2.38 0.49,-5.13 0.49,-8.25 v -7.03 h -5.22 z"></path>
</g><g id="g48">
	<path id="path46" d="m 659.81,359.07 c 9.14,0 16.78,7.25 16.78,16.74 0,9.68 -7.64,16.92 -16.78,16.92 -9.19,0 -16.9,-7.24 -16.9,-16.92 0,-9.49 7.72,-16.74 16.9,-16.74 z m 0,31.18 c 7.73,0 13.76,-6.21 13.76,-14.44 0,-8.05 -6.03,-14.27 -13.76,-14.27 -7.86,0 -13.84,6.21 -13.84,14.27 0,8.24 5.98,14.44 13.84,14.44 z m -6.53,-24.2 h 7.54 c 4.65,0 6.85,1.85 6.85,5.62 0,3.55 -2.24,5.04 -5.13,5.36 l 5.57,8.68 h -3.24 l -5.34,-8.46 h -3.23 v 8.46 h -3.02 z m 3.02,8.73 h 3.18 c 2.7,0 5.17,-0.13 5.17,-3.24 0,-2.61 -2.24,-3.01 -4.31,-3.01 h -4.04 z"></path>
</g></g></g>
<g id="g50">
</g>
<g id="g52">
</g>
<g id="g54">
</g>
<g id="g56">
</g>
<g id="g58">
</g>
<g id="g60">
</g>
</svg>
